<svg xmlns="http://www.w3.org/2000/svg" version="1.1" xmlns:xlink="http://www.w3.org/1999/xlink" xmlns:svgjs="http://svgjs.dev/svgjs" width="1000" height="1000"><g clip-path="url(#SvgjsClipPath1414)"><rect width="1000" height="1000" fill="#ffffff"></rect><g transform="matrix(22.857142857142858,0,0,22.857142857142858,100,100)"><svg xmlns="http://www.w3.org/2000/svg" version="1.1" xmlns:xlink="http://www.w3.org/1999/xlink" xmlns:svgjs="http://svgjs.dev/svgjs" width="35" height="35"><svg width="35" height="35" viewBox="0 0 35 35" fill="none" xmlns="http://www.w3.org/2000/svg">
  <rect width="35" height="35" fill="white"></rect>
  <mask id="mask0_6_131" style="mask-type:alpha" maskUnits="userSpaceOnUse" x="3" y="2" width="16" height="30">
    <rect x="3.5" y="2.5" width="15" height="29" rx="2.5" fill="#61A7C2" stroke="#000D0D"></rect>
  </mask>
  <g mask="url(#mask0_6_131)">
    <path d="M3 5C3 3.34315 4.34315 2 6 2H16C17.6569 2 19 3.34315 19 5V29C19 30.6569 17.6569 32 16 32H6C4.34315 32 3 30.6569 3 29V5Z" fill="#37A7D3"></path>
    <circle cx="8.46154" cy="8.46154" r="2.96154" fill="#FBDD56" stroke="#000D0D"></circle>
    <path d="M11.3077 20L-0.230769 24.3462V32.4615H29.7692V24.3462H20.4488L11.3077 20Z" fill="#228315" stroke="#000D0D" stroke-linejoin="round"></path>
    <rect x="3.5" y="2.5" width="15" height="29" rx="2.5" stroke="#000D0D"></rect>
  </g>
  <rect x="16" y="2" width="3" height="30" fill="white"></rect>
  <line x1="17.5" y1="2.5" x2="17.5" y2="31.5" stroke="#000D0D" stroke-linecap="round" stroke-dasharray="5 3"></line>
  <mask id="mask1_6_131" style="mask-type:alpha" maskUnits="userSpaceOnUse" x="16" y="2" width="16" height="31">
    <rect x="-0.5" y="0.5" width="15" height="30" rx="1.5" transform="matrix(-1 0 0 1 31 2)" fill="#61A7C2" stroke="#000D0D"></rect>
  </mask>
  <g mask="url(#mask1_6_131)">
    <path d="M32 4C32 2.89543 31.1046 2 30 2H18C16.8954 2 16 2.89543 16 4V31C16 32.1046 16.8954 33 18 33H30C31.1046 33 32 32.1046 32 31V4Z" fill="#1F718F"></path>
    <circle cx="3.46154" cy="3.46154" r="2.96154" transform="matrix(-1 0 0 1 27.9231 5)" fill="#D0E5FF" stroke="#000D0D"></circle>
    <path d="M23.6923 20L35.2308 24.3462V32.4615H5.23077V24.3462H14.5512L23.6923 20Z" fill="#14560C" stroke="#000D0D" stroke-linejoin="round"></path>
    <rect x="-0.5" y="0.5" width="15" height="30" rx="1.5" transform="matrix(-1 0 0 1 31 2)" stroke="#000D0D"></rect>
  </g>
  <mask id="mask2_6_131" style="mask-type:alpha" maskUnits="userSpaceOnUse" x="3" y="2" width="16" height="31">
    <rect x="3.5" y="2.5" width="15" height="30" rx="1.5" fill="#61A7C2" stroke="#000D0D"></rect>
  </mask>
  <g mask="url(#mask2_6_131)">
    <path d="M3 4C3 2.89543 3.89543 2 5 2H17C18.1046 2 19 2.89543 19 4V31C19 32.1046 18.1046 33 17 33H5C3.89543 33 3 32.1046 3 31V4Z" fill="#37A7D3"></path>
    <circle cx="10.4615" cy="8.46154" r="2.96154" fill="#FBDD56" stroke="#000D0D"></circle>
    <path d="M11.3077 20L-0.230769 24.3462V32.4615H29.7692V24.3462H20.4488L11.3077 20Z" fill="#228315" stroke="#000D0D" stroke-linejoin="round"></path>
    <rect x="3.5" y="2.5" width="15" height="30" rx="1.5" stroke="#000D0D"></rect>
  </g>
  <rect x="16" y="2" width="3" height="31" fill="white"></rect>
  <line x1="17.5" y1="2.5" x2="17.5" y2="32.5" stroke="#000D0D" stroke-linecap="round" stroke-dasharray="8 4"></line>
</svg></svg></g></g><defs><clipPath id="SvgjsClipPath1414"><rect width="1000" height="1000" x="0" y="0" rx="150" ry="150"></rect></clipPath></defs></svg>